<svg id="Capa_1" enable-background="new 0 0 512 512" height="512" viewBox="0 0 512 512" width="512" xmlns="http://www.w3.org/2000/svg"><path d="m254.75 142.145c3.19-1.876 5.151-5.202 5.247-8.896.095-3.684-1.687-7.095-4.765-9.125-13.667-9.015-26.523-24.641-37.178-45.187-1.906-3.674-6.427-5.108-10.101-3.203s-5.107 6.427-3.202 10.1c10.638 20.513 23.012 36.275 36.847 46.951-6.806 4.717-13.329 10.592-19.456 17.529-12.116 13.719-18.788 31.629-18.788 50.429 0 .584-.475 1.059-1.059 1.059h-45.905c-.584 0-1.059-.475-1.059-1.086 0-18.778-6.666-36.671-18.77-50.382-6.135-6.949-12.667-12.834-19.48-17.554 23.094-17.891 42.368-50.463 54.769-92.157v61.223c-12.964 3.337-22.571 15.127-22.571 29.118 0 16.578 13.486 30.064 30.064 30.064s30.064-13.486 30.064-30.064c0-13.991-9.607-25.78-22.571-29.118v-61.225c1.267 4.263 2.603 8.444 4.014 12.519 1.354 3.911 5.62 5.979 9.531 4.63 3.911-1.354 5.983-5.621 4.63-9.531-3.816-11.025-7.1-22.85-9.759-35.148-1.453-6.717-6.852-11.903-13.435-12.905-8.473-1.291-16.518 4.256-18.32 12.624-11.442 53.117-33.325 93.689-60.037 111.312-3.081 2.031-4.863 5.445-4.768 9.129.095 3.694 2.057 7.019 5.247 8.895 7.459 4.385 14.656 10.477 21.391 18.106 9.685 10.97 15.018 25.341 15.018 40.491 0 5.38 2.671 10.138 6.746 13.051v28.872c0 4.138 3.354 7.492 7.492 7.492s7.492-3.354 7.492-7.492v-25.878h34.531v262.962c0 9.521-7.746 17.266-17.266 17.266s-17.266-7.745-17.266-17.266v-202.452c0-4.138-3.354-7.492-7.492-7.492s-7.492 3.354-7.492 7.492v202.452c0 17.783 14.468 32.25 32.25 32.25s32.25-14.468 32.25-32.25v-265.957c4.075-2.913 6.746-7.671 6.746-13.05 0-15.145 5.339-29.532 15.035-40.51 6.728-7.618 13.92-13.703 21.376-18.088zm-60.328-11.181c0 8.315-6.764 15.079-15.079 15.079s-15.079-6.765-15.079-15.079 6.764-15.078 15.079-15.078 15.079 6.765 15.079 15.078z"/><path d="m412.67 421.75c-.478-4.11-4.191-7.048-8.308-6.576-4.11.479-7.054 4.199-6.576 8.309.36 3.095.543 6.256.543 9.395 0 23.815-10.483 46.274-28.761 61.62-1.934 1.623-4.438 2.518-7.051 2.518h-89.284c-2.613 0-5.117-.895-7.05-2.518-18.278-15.346-28.761-37.805-28.761-61.62 0-20.379 7.647-39.824 21.531-54.753 2.136-2.296 5.126-3.613 8.204-3.613h101.436c3.078 0 6.069 1.317 8.204 3.614 4.67 5.02 8.684 10.614 11.931 16.629 1.966 3.641 6.511 4.999 10.152 3.033s4.999-6.511 3.034-10.153c-3.851-7.131-8.609-13.764-14.144-19.714-4.96-5.333-11.95-8.393-19.176-8.393h-7.434v-10.722c2.663-1.149 4.528-3.795 4.528-6.88s-1.865-5.731-4.528-6.88v-10.675c0-8.095-6.586-14.68-14.681-14.68h-57.206c-8.095 0-14.681 6.585-14.681 14.68v10.774c-2.551 1.195-4.322 3.778-4.322 6.781s1.771 5.586 4.322 6.781v10.821h-7.434c-7.227 0-14.216 3.059-19.176 8.393-16.472 17.711-25.544 40.779-25.544 64.957 0 28.254 12.433 54.896 34.111 73.097 4.629 3.886 10.555 6.026 16.686 6.026h89.284c6.131 0 12.057-2.14 16.686-6.026 21.678-18.2 34.11-44.843 34.11-73.097-.002-3.716-.218-7.46-.645-11.128zm-66.496-97.076v9.759h-56.598v-9.759zm-56.598 24.743h56.598v10.11h-56.598z"/></svg>